# xmcd
#
# Track frame offsets:
# 150
# 13034
# 26798
# 41195
# 60814
# 73587
# 86297
# 104021
# 116576
# 131816
# 143749
# 156407
#
# Disc length: 2214 seconds
#
#
# Revision: 0
# Processed by: cddbd v1.5.2PL0 Copyright (c) Steve Scherf et al.
# Submitted via: FreeRIP 2.945 
#
DISCID=a508a40c
DTITLE=Donny and Marie Osmond - The Best of Donny and Marie Osmond
DYEAR=2002
DGENRE=Bubblegum
TTITLE0=I'm Leaving It All Up To You
TTITLE1=Morning Side Of The Mountain
TTITLE2=Let It Be Me
TTITLE3=One Of These Days
TTITLE4=It Takes Two
TTITLE5=Make The World Go Away
TTITLE6=Living On My Suspicion
TTITLE7=Deep Purple
TTITLE8=It's All In The Game
TTITLE9=Paper Roses
TTITLE10=In My Little Corner Of The World
TTITLE11=Who's Sorry Now
EXTD=
EXTT0=
EXTT1=
EXTT2=
EXTT3=
EXTT4=
EXTT5=
EXTT6=
EXTT7=
EXTT8=
EXTT9=
EXTT10=
EXTT11=
PLAYORDER=
